<?xml version="1.0" encoding="UTF-8" standalone="no"?>
<!-- Created with Inkscape (http://www.inkscape.org/) -->

<svg
   width="210mm"
   height="297mm"
   viewBox="0 0 210 297"
   version="1.1"
   id="svg5"
   xml:space="preserve"
   sodipodi:docname="avatar.svg"
   inkscape:version="1.2.2 (732a01da63, 2022-12-09)"
   xmlns:inkscape="http://www.inkscape.org/namespaces/inkscape"
   xmlns:sodipodi="http://sodipodi.sourceforge.net/DTD/sodipodi-0.dtd"
   xmlns="http://www.w3.org/2000/svg"
   xmlns:svg="http://www.w3.org/2000/svg"><sodipodi:namedview
     id="namedview7"
     pagecolor="#ffffff"
     bordercolor="#000000"
     borderopacity="0.25"
     inkscape:showpageshadow="2"
     inkscape:pageopacity="0.0"
     inkscape:pagecheckerboard="0"
     inkscape:deskcolor="#d1d1d1"
     inkscape:document-units="mm"
     showgrid="false"
     inkscape:zoom="0.70710678"
     inkscape:cx="594.6768"
     inkscape:cy="549.42197"
     inkscape:window-width="1920"
     inkscape:window-height="1001"
     inkscape:window-x="-9"
     inkscape:window-y="-9"
     inkscape:window-maximized="1"
     inkscape:current-layer="layer1" /><defs
     id="defs2"><style
       id="style152">.cls-1{fill:none;stroke:#21FEFE;stroke-miterlimit:10;stroke-width:1.91px;}</style><style
       id="style2643">.cls-1{fill:none;stroke:#d9d9d9;stroke-miterlimit:10;stroke-width:1.91px;}</style><style
       id="style77">.cls-1{fill:none;stroke:#21FEFE;stroke-miterlimit:10;stroke-width:1.91px;}</style></defs><g
     inkscape:label="Слой 1"
     inkscape:groupmode="layer"
     id="layer1"
     style="display:inline;fill:#c8b7b7;fill-opacity:1"
     transform="matrix(2.280388,0,0,2.245309,-114.16406,-190.67478)"><circle
       style="display:inline;fill:#282828;fill-opacity:1;fill-rule:evenodd;stroke:#000000;stroke-width:0;stroke-dasharray:none;stroke-opacity:0.146104;paint-order:stroke fill markers"
       id="path74"
       cx="97.054054"
       cy="152.5135"
       r="64" /></g><g
     inkscape:groupmode="layer"
     id="layer2"
     inkscape:label="Слой 2"
     transform="matrix(2.3575617,0,0,2.3579981,-71.618653,-148.70229)"><g
       style="fill:#d9d9d9;stroke:#d9d9d9"
       id="g112"
       transform="matrix(0.0987623,0,0,0.10087485,26.254008,76.234153)"><g
         id="SVGRepo_bgCarrier"
         stroke-width="0" /><g
         id="SVGRepo_tracerCarrier"
         stroke-linecap="round"
         stroke-linejoin="round" /><g
         id="SVGRepo_iconCarrier">

<path
   d="M 256,0 C 114.615,0 0,114.615 0,256 0,397.385 114.615,512 256,512 397.385,512 512,397.385 512,256 512,114.615 397.385,0 256,0 Z m 0,90 c 37.02,0 67.031,35.468 67.031,79.219 0,43.751 -30.011,79.219 -67.031,79.219 -37.02,0 -67.031,-35.468 -67.031,-79.219 C 188.969,125.468 218.98,90 256,90 Z M 369.46,402 H 142.54 c -11.378,0 -20.602,-9.224 -20.602,-20.602 C 121.938,328.159 181.959,285 256,285 c 74.041,0 134.062,43.159 134.062,96.398 0,11.378 -9.223,20.602 -20.602,20.602 z"
   id="path100"
   style="fill:#21fefe;fill-opacity:1" />

</g></g><g
       style="fill:#d9d9d9;fill-opacity:1"
       id="g195"
       transform="matrix(2.8226849,0,0,3.0638152,77.761255,85.350111)"><path
         fill-rule="evenodd"
         clip-rule="evenodd"
         d="m 11.8335,2.83118 c 0.1107,-0.01059 0.2223,-0.01059 0.333,0 0.6871,0.06569 1.0942,0.59386 1.3652,1.05621 0.2792,0.47615 0.5645,1.15268 0.9053,1.96078 l 0.0219,0.05191 c 0.2152,0.51015 0.3574,0.84533 0.4917,1.09571 0.1272,0.23705 0.221,0.34589 0.3126,0.41883 0.0288,0.02295 0.0586,0.04462 0.0894,0.06493 0.0976,0.06457 0.2302,0.12017 0.4949,0.16788 0.2796,0.0504 0.6424,0.08205 1.194,0.12904 l 0.0562,0.00478 c 0.8738,0.0744 1.6054,0.13669 2.1445,0.25505 0.5235,0.11494 1.1516,0.33886 1.4264,0.972 0.0443,0.10208 0.0788,0.20815 0.1029,0.31677 0.1499,0.67373 -0.2267,1.22413 -0.5826,1.62473 -0.3666,0.4127 -0.9219,0.8931 -1.5851,1.467 l -0.0426,0.0368 c -0.4187,0.3623 -0.6935,0.6011 -0.8901,0.8062 -0.1862,0.1942 -0.2607,0.3171 -0.3018,0.4267 -0.0129,0.0345 -0.0243,0.0696 -0.0341,0.1051 -0.0312,0.1128 -0.0431,0.256 -0.0067,0.5226 0.0385,0.2815 0.1205,0.6363 0.2462,1.1754 l 0.0128,0.0549 c 0.1993,0.8541 0.3662,1.5691 0.4202,2.1184 0.0524,0.5334 0.0336,1.2 -0.4837,1.657 -0.0834,0.0736 -0.1736,0.1392 -0.2694,0.1957 -0.5945,0.3507 -1.2343,0.1627 -1.7253,-0.052 -0.5058,-0.2211 -1.1342,-0.6008 -1.8849,-1.0542 l -0.0482,-0.0291 c -0.474,-0.2863 -0.786,-0.4739 -1.0419,-0.5975 -0.2422,-0.117 -0.3821,-0.1499 -0.4991,-0.1551 -0.0368,-0.0016 -0.0736,-0.0016 -0.1104,0 -0.117,0.0052 -0.2569,0.0381 -0.4991,0.1551 -0.2559,0.1236 -0.5679,0.3112 -1.0419,0.5975 l -0.0482,0.0291 C 9.60492,18.8628 8.97645,19.2425 8.47072,19.4636 7.97966,19.6783 7.33988,19.8663 6.74543,19.5156 6.64959,19.4591 6.55936,19.3935 6.47597,19.3199 5.95873,18.8629 5.93986,18.1963 5.99232,17.6629 6.04634,17.1136 6.21318,16.3986 6.41246,15.5445 l 0.0128,-0.0549 C 6.55105,14.9505 6.63303,14.5957 6.67151,14.3142 6.70795,14.0476 6.69601,13.9044 6.66479,13.7916 6.65496,13.7561 6.64357,13.721 6.63065,13.6865 6.58959,13.5769 6.51507,13.454 6.32892,13.2598 6.13231,13.0547 5.85747,12.8159 5.43878,12.4536 L 5.39619,12.4167 C 4.73294,11.8429 4.17769,11.3625 3.81111,10.9498 3.45515,10.5492 3.07862,9.9988 3.22847,9.32507 3.25263,9.21645 3.28709,9.11038 3.33139,9.0083 3.60617,8.37516 4.23429,8.15124 4.75778,8.0363 5.29689,7.91794 6.02847,7.85565 6.90233,7.78125 L 6.95846,7.77647 C 7.51013,7.72948 7.87285,7.69783 8.15249,7.64743 8.41724,7.59972 8.54975,7.54412 8.64743,7.47955 8.67816,7.45924 8.70797,7.43757 8.73679,7.41462 8.82838,7.34168 8.92221,7.23284 9.0494,6.99579 9.18374,6.74541 9.32594,6.41023 9.5411,5.90008 L 9.56298,5.84819 C 9.90378,5.04008 10.1891,4.36355 10.4683,3.88739 10.7393,3.42504 11.1464,2.89687 11.8335,2.83118 Z M 12,4.32434 C 11.9684,4.34992 11.8894,4.42924 11.7623,4.64606 11.5393,5.02627 11.2916,5.60942 10.9232,6.483 L 10.9103,6.51351 C 10.7115,6.98492 10.5426,7.38544 10.3712,7.70499 10.1889,8.04473 9.97841,8.34338 9.67123,8.58801 9.60783,8.63849 9.54223,8.68615 9.47463,8.73085 9.14704,8.9474 8.79798,9.05527 8.41853,9.12365 8.06165,9.18797 7.62854,9.22485 7.11877,9.26825 L 7.08576,9.27106 C 6.14108,9.35152 5.50993,9.40689 5.07945,9.5014 4.83396,9.5553 4.7341,9.60594 4.70001,9.6281 4.71457,9.66606 4.76559,9.76572 4.93251,9.95362 5.22523,10.2831 5.70329,10.6989 6.42027,11.3193 l 0.02507,0.0216 c 0.38688,0.3348 0.7156,0.6192 0.96651,0.881 0.26679,0.2783 0.48578,0.5708 0.62351,0.9385 0.02843,0.0759 0.05349,0.153 0.0751,0.2312 0.10473,0.3784 0.09945,0.7437 0.04723,1.1257 -0.04911,0.3593 -0.14788,0.7826 -0.26413,1.2809 l -0.00753,0.0322 c -0.21539,0.9233 -0.35777,1.5407 -0.40091,1.9793 -0.0246,0.2502 -0.0073,0.3608 0.00324,0.4 0.0406,-0.0021 0.15115,-0.0198 0.38144,-0.1205 0.40382,-0.1766 0.94697,-0.5027 1.75853,-0.9929 l 0.02836,-0.0171 c 0.43791,-0.2646 0.81001,-0.4893 1.13651,-0.647 0.3472,-0.1678 0.693,-0.2857 1.0853,-0.303 0.081,-0.0036 0.162,-0.0036 0.243,0 0.3923,0.0173 0.7381,0.1352 1.0853,0.303 0.3265,0.1577 0.6986,0.3825 1.1365,0.647 l 0.0284,0.0171 c 0.8115,0.4902 1.3547,0.8163 1.7585,0.9929 0.2303,0.1007 0.3408,0.1184 0.3814,0.1205 0.0106,-0.0392 0.0279,-0.1498 0.0033,-0.4 -0.0432,-0.4386 -0.1855,-1.056 -0.4009,-1.9793 l -0.0076,-0.0323 c -0.1162,-0.4982 -0.215,-0.9215 -0.2641,-1.2808 -0.0522,-0.382 -0.0575,-0.7473 0.0472,-1.1257 0.0217,-0.0782 0.0467,-0.1553 0.0751,-0.2312 0.1378,-0.3677 0.3568,-0.6602 0.6235,-0.9385 0.251,-0.2618 0.5797,-0.5462 0.9665,-0.8809 l 0.0251,-0.0217 c 0.717,-0.6204 1.1951,-1.0362 1.4878,-1.36568 C 19.2344,9.76572 19.2854,9.66606 19.3,9.6281 19.2659,9.60594 19.166,9.5553 18.9206,9.5014 18.4901,9.40689 17.8589,9.35152 16.9142,9.27106 L 16.8812,9.26825 C 16.3715,9.22485 15.9383,9.18797 15.5815,9.12365 15.202,9.05527 14.853,8.9474 14.5254,8.73085 14.4578,8.68615 14.3922,8.63849 14.3288,8.58801 14.0216,8.34338 13.8111,8.04473 13.6288,7.70499 13.4574,7.38545 13.2885,6.98492 13.0897,6.51352 L 13.0768,6.483 C 12.7083,5.60942 12.4607,5.02627 12.2377,4.64606 12.1106,4.42924 12.0316,4.34992 12,4.32434 Z"
         fill="#21fefe"
         id="path186"
         style="fill:#21fefe;fill-opacity:1" /></g><g
       style="fill:#000000"
       id="g109"
       transform="matrix(2.1295367,0,0,2.353085,38.948867,131.21087)"><g
         id="SVGRepo_bgCarrier-5"
         stroke-width="0" /><g
         id="SVGRepo_tracerCarrier-0"
         stroke-linecap="round"
         stroke-linejoin="round" /><g
         id="SVGRepo_iconCarrier-5"><defs
           id="defs79"><style
             id="style100">.cls-1{fill:none;stroke:#21FEFE;stroke-miterlimit:10;stroke-width:1.91px;}</style></defs><g
           id="cart-9"><circle
             class="cls-1"
             cx="10.07"
             cy="20.59"
             r="1.91"
             id="circle81" /><circle
             class="cls-1"
             cx="18.66"
             cy="20.59"
             r="1.91"
             id="circle83" /><path
             class="cls-1"
             d="m 0.52,1.5 h 2.66 a 2.87,2.87 0 0 1 2.74,2 L 9.11,13.91 H 8.64 A 2.39,2.39 0 0 0 6.25,16.3 v 0 a 2.39,2.39 0 0 0 2.39,2.38 h 10"
             id="path85" /><polyline
             class="cls-1"
             points="7.21 5.32 22.48 5.32 22.48 7.23 20.57 13.91 9.11 13.91"
             id="polyline87" /></g></g></g></g></svg>
