<?xml version="1.0" encoding="UTF-8" standalone="no"?>
<!-- Uploaded to: SVG Repo, www.svgrepo.com, Transformed by: SVG Repo Mixer Tools -->

<svg
   width="64px"
   height="64px"
   viewBox="0 0 24 24"
   fill="#000000"
   version="1.1"
   id="svg18"
   sodipodi:docname="shop_fill.svg"
   inkscape:version="1.2.2 (732a01da63, 2022-12-09)"
   xmlns:inkscape="http://www.inkscape.org/namespaces/inkscape"
   xmlns:sodipodi="http://sodipodi.sourceforge.net/DTD/sodipodi-0.dtd"
   xmlns="http://www.w3.org/2000/svg"
   xmlns:svg="http://www.w3.org/2000/svg">
  <defs
     id="defs22">
    <inkscape:path-effect
       effect="bspline"
       id="path-effect1007"
       is_visible="true"
       lpeversion="1"
       weight="33.333333"
       steps="2"
       helper_size="0"
       apply_no_weight="true"
       apply_with_weight="true"
       only_selected="false" />
  </defs>
  <sodipodi:namedview
     id="namedview20"
     pagecolor="#ffffff"
     bordercolor="#000000"
     borderopacity="0.25"
     inkscape:showpageshadow="2"
     inkscape:pageopacity="0.0"
     inkscape:pagecheckerboard="0"
     inkscape:deskcolor="#d1d1d1"
     showgrid="false"
     inkscape:zoom="12.71875"
     inkscape:cx="32.039312"
     inkscape:cy="32"
     inkscape:window-width="1920"
     inkscape:window-height="1001"
     inkscape:window-x="-9"
     inkscape:window-y="-9"
     inkscape:window-maximized="1"
     inkscape:current-layer="svg18" />
  <g
     id="SVGRepo_bgCarrier"
     stroke-width="0" />
  <g
     id="SVGRepo_tracerCarrier"
     stroke-linecap="round"
     stroke-linejoin="round" />
  <g
     id="SVGRepo_iconCarrier">
    <defs
       id="defs6">
      <style
         id="style4">.cls-1{fill:none;stroke:#21FEFE;stroke-miterlimit:10;stroke-width:1.91px;}</style>
    </defs>
    <g
       id="cart">
      <circle
         class="cls-1"
         cx="10.07"
         cy="20.59"
         r="1.91"
         id="circle8" />
      <circle
         class="cls-1"
         cx="18.66"
         cy="20.59"
         r="1.91"
         id="circle10" />
      <path
         class="cls-1"
         d="M.52,1.5H3.18a2.87,2.87,0,0,1,2.74,2L9.11,13.91H8.64A2.39,2.39,0,0,0,6.25,16.3h0a2.39,2.39,0,0,0,2.39,2.38h10"
         id="path12" />
      <polyline
         class="cls-1"
         points="7.21 5.32 22.48 5.32 22.48 7.23 20.57 13.91 9.11 13.91"
         id="polyline14" />
    </g>
  </g>
  <path
     style="fill:#21fefe;fill-opacity:1;fill-rule:evenodd;stroke:#000000;stroke-width:0;stroke-dasharray:none;stroke-opacity:0.146104;paint-order:stroke fill markers"
     d="M 9.2585129,14.179102 C 9.2295565,14.058451 9.1705883,13.812751 9.1176968,13.660246 9.0648053,13.507742 9.0156665,13.448775 8.9166937,13.252448 8.8177208,13.056121 8.6703008,12.721969 8.5675514,12.510569 8.4648021,12.299168 8.405833,12.210715 8.3749066,12.15637 c -0.030926,-0.05434 -0.030926,-0.07399 -0.04055,-0.181937 -0.00962,-0.107943 -0.02928,-0.304503 -0.077906,-0.52543 -0.048626,-0.220928 -0.12725,-0.466628 -0.1672804,-0.638988 -0.040031,-0.17236 -0.040031,-0.270641 -0.064281,-0.481707 C 8.0006395,10.117241 7.9514995,9.792917 7.917907,9.611239 7.8843144,9.4295611 7.8646583,9.3902495 7.8489341,9.3015461 7.8332099,9.2128428 7.8233824,9.0752503 7.7894193,8.893647 7.7554561,8.7120436 7.6964881,8.4859996 7.6530083,8.3484001 7.6095285,8.2108006 7.5800441,8.16166 7.5400654,8.0535792 7.5000867,7.9454985 7.4509467,7.7784224 7.397454,7.6408303 7.3439613,7.5032381 7.2849931,7.3951299 7.2354561,7.2870469 7.185919,7.1789638 7.1466069,7.0708555 7.1123577,6.9824083 7.0781084,6.8939611 7.0486242,6.8251646 7.0329124,6.7658086 7.0172006,6.7064527 7.0172006,6.6573127 7.0082777,6.6085605 6.9993548,6.5598082 6.9796991,6.5106689 6.9689659,6.4660551 6.9582326,6.4214414 6.9582326,6.3821284 6.9493097,6.3382902 6.9403868,6.2944519 6.9207311,6.2453126 6.9196009,6.1512582 6.9184707,6.0572037 6.9381266,5.919612 7.0871801,5.819455 7.2362337,5.719298 7.5114181,5.66033 7.8558649,5.6311478 8.2003118,5.6019656 8.6130881,5.6019656 8.9613692,5.5623055 9.3096503,5.5226453 9.5946627,5.4440212 9.8451762,5.3702897 10.09569,5.2965583 10.311906,5.2277624 10.478946,5.1737028 c 0.16704,-0.05406 0.284976,-0.093372 0.398564,-0.1177204 0.113587,-0.024349 0.221696,-0.034176 0.457701,-0.043899 0.236004,-0.00972 0.599641,-0.01955 1.00786,0.025199 0.408218,0.044749 0.860307,0.1430297 1.125688,0.202075 0.26538,0.059045 0.344008,0.078702 0.437428,0.113576 0.09342,0.034874 0.201529,0.084014 0.559979,0.1273411 0.35845,0.043327 0.967786,0.082639 1.341138,0.1021666 0.373352,0.019528 0.510944,0.019528 0.628209,0.00442 0.117265,-0.015103 0.215545,-0.044587 0.348651,-0.068988 0.133106,-0.024401 0.300183,-0.044057 0.402494,-0.063896 0.102312,-0.019839 0.141621,-0.039493 0.216274,-0.054015 0.07465,-0.014521 0.18276,-0.024349 0.256103,-0.034354 0.07334,-0.010005 0.112652,-0.019832 0.349119,-0.019458 0.236467,3.74e-4 0.668899,0.010202 1.00301,0.015072 0.334111,0.00487 0.569983,0.00487 0.722673,0.015336 0.15269,0.010465 0.221482,0.03012 0.289926,0.039311 0.06844,0.00919 0.137237,0.00919 0.201373,0.014461 0.06414,0.00527 0.123103,0.015097 0.196558,0.019657 0.07346,0.00456 0.16191,0.00456 0.24089,0.015025 0.07898,0.010465 0.147772,0.03012 0.216216,0.039311 0.06845,0.00919 0.137237,0.00919 0.201495,0.01977 0.06426,0.010578 0.123224,0.030234 0.191845,0.044485 0.06862,0.014251 0.147249,0.024079 0.201099,0.045349 0.05385,0.02127 0.08334,0.050758 0.112819,0.063624 0.02948,0.012866 0.05897,0.012866 0.08845,0.029482 0.02948,0.016616 0.05897,0.046104 0.08882,0.064634 0.02986,0.01853 0.05935,0.028359 0.09337,0.054053 0.03402,0.025694 0.07333,0.065005 0.122727,0.088056 0.0494,0.023051 0.108362,0.032878 0.147422,0.049142 0.03906,0.016263 0.05871,0.035915 0.07346,0.043869 0.01474,0.00795 0.02457,0.00795 0.02761,0.039313 0.003,0.031359 0.003,0.090327 -0.01201,0.1881404 -0.01504,0.097813 -0.04453,0.2354067 -0.05897,0.3194105 -0.01444,0.084004 -0.01444,0.1134888 -0.02427,0.1361851 -0.0098,0.022696 -0.02948,0.042348 -0.03931,0.063881 -0.0098,0.021533 -0.0098,0.041187 -0.01475,0.05406 -0.0049,0.012873 -0.01474,0.022692 -0.01965,0.058963 -0.0049,0.03627 -0.0049,0.095239 -0.02001,0.1731915 -0.0151,0.077953 -0.04459,0.1762345 -0.05897,0.2407859 -0.01438,0.064551 -0.01438,0.094037 -0.0393,0.1517671 -0.02492,0.05773 -0.07406,0.1461816 -0.123131,0.3189955 -0.04907,0.1728139 -0.09821,0.4283423 -0.152312,0.604338 -0.0541,0.1759957 -0.113072,0.2742748 -0.157242,0.402959 -0.04417,0.1286841 -0.07366,0.2859333 -0.09304,0.3680054 -0.01938,0.082072 -0.0292,0.091892 -0.03411,0.1379898 -0.0049,0.046098 -0.0049,0.1247224 -0.02489,0.247056 -0.01997,0.1223336 -0.05929,0.2894091 -0.09865,0.431682 -0.03937,0.1422725 -0.07868,0.2602085 -0.1031,0.3540285 -0.02442,0.09382 -0.03425,0.16261 -0.04876,0.205263 -0.01452,0.04265 -0.03417,0.0623 -0.05421,0.09767 -0.02005,0.03537 -0.0397,0.08451 -0.08393,0.182642 -0.04422,0.09813 -0.113017,0.245551 -0.156993,0.447925 -0.04397,0.202373 -0.06363,0.457901 -0.08831,0.678851 -0.02468,0.220951 -0.05416,0.407684 -0.06866,0.530869 -0.0145,0.123185 -0.0145,0.182152 -0.03444,0.239678 -0.01994,0.05753 -0.05926,0.116492 -0.103581,0.205444 -0.04433,0.08895 -0.09347,0.206888 -0.171218,0.299014 -0.07775,0.09212 -0.185858,0.16092 -0.250227,0.205457 -0.06437,0.04454 -0.08402,0.06419 -0.117451,0.08346 -0.03343,0.01927 -0.08257,0.03893 -0.122849,0.06388 -0.04028,0.02496 -0.06977,0.05445 -0.166689,0.08852 -0.09692,0.03408 -0.263997,0.07339 -0.528836,0.09337 -0.26484,0.01998 -0.628476,0.01998 -1.001894,0.01511 -0.373418,-0.0049 -0.75671,-0.01469 -1.041769,-0.01965 -0.285059,-0.005 -0.471791,-0.005 -0.776459,-0.005 -0.304668,0 -0.727273,0 -1.085995,0 -0.358723,0 -0.653563,0 -0.884764,0.0096 -0.231202,0.0096 -0.398278,0.02929 -0.502354,0.04877 -0.104076,0.01947 -0.143384,0.03913 -0.186487,0.04933 -0.0431,0.0102 -0.09224,0.0102 -0.195697,0.01983 -0.103454,0.0096 -0.260701,0.02928 -0.402948,0.03931 -0.142247,0.01003 -0.270011,0.01003 -0.403155,0.02447 -0.133144,0.01444 -0.270738,0.04392 -0.368552,0.05897 -0.09781,0.01504 -0.156781,0.01504 -0.201756,0.01958 -0.04497,0.0045 -0.07446,0.01437 -0.231027,0.02451 -0.156562,0.01014 -0.441574,0.01996 -0.609016,0.02957 -0.167442,0.0096 -0.216582,0.01943 -0.314429,0.02463 -0.09785,0.0052 -0.245268,0.0052 -0.388074,0.01481 -0.142806,0.0096 -0.280398,0.02926 -0.432432,0.03931 -0.1520344,0.01005 -0.3191108,0.01005 -0.4143529,0.01988 -0.095242,0.0098 -0.1148938,0.02948 -0.1728927,0.05858 -0.057999,0.0291 -0.1562784,0.06841 -0.206389,0.08845 -0.05011,0.02004 -0.050117,0.02003 -0.079073,-0.100621 z"
     id="path1005"
     inkscape:path-effect="#path-effect1007"
     inkscape:original-d="m 9.2874694,14.299754 c -0.055218,-0.24195 -0.1141864,-0.48765 -0.1769044,-0.7371 -0.04539,-0.05522 -0.09453,-0.114186 -0.14742,-0.176905 -0.14367,-0.330402 -0.2910904,-0.664554 -0.4422604,-1.002457 -0.055218,-0.0847 -0.1141863,-0.173154 -0.1769043,-0.265356 0.00375,-0.01591 0.00375,-0.03556 0,-0.05897 -0.015908,-0.19281 -0.035561,-0.38937 -0.058968,-0.58968 -0.074874,-0.241951 -0.153498,-0.487651 -0.2358724,-0.737101 0.00375,-0.09453 0.00375,-0.192811 0,-0.294841 C 8.0037499,10.11677 7.9546099,9.7924457 7.9017199,9.4643714 7.8858124,9.4288121 7.8661586,9.3894994 7.8427519,9.3464374 7.8366731,9.2125954 7.8268444,9.075003 7.8132694,8.933661 7.7580514,8.7113666 7.6990834,8.4853226 7.636365,8.2555282 7.6106325,8.2101382 7.581147,8.1609982 7.547913,8.1081082 7.502523,7.9447819 7.453383,7.7777059 7.400493,7.6068795 7.345275,7.5025215 7.2863066,7.3944135 7.2235886,7.2825551 7.1880274,7.1781971 7.1487146,7.0700891 7.1056526,6.9582311 7.0799201,6.8931847 7.0504346,6.8243887 7.0172006,6.7518427 c 0.00375,-0.04539 0.00375,-0.09453 0,-0.14742 -0.015907,-0.04539 -0.035561,-0.09453 -0.058968,-0.1474203 0.00375,-0.035561 0.00375,-0.074874 0,-0.117936 -0.015907,-0.04539 -0.035561,-0.09453 -0.058968,-0.14742 0.023408,-0.1338424 0.043062,-0.2714344 0.058968,-0.4127768 0.278934,-0.055218 0.5541184,-0.114186 0.8255528,-0.176904 0.4165264,0.00375 0.8293027,0.00375 1.2383291,0 0.2887624,-0.074874 0.5737748,-0.153498 0.8550368,-0.2358724 0.2199667,-0.065046 0.4361827,-0.133842 0.6486487,-0.206388 0.121686,-0.035561 0.239622,-0.074874 0.353808,-0.1179363 0.111858,-0.00608 0.219967,-0.015907 0.324325,-0.029483 0.367386,-0.00608 0.731023,-0.015907 1.090909,-0.029482 0.455838,0.1020303 0.907927,0.2003103 1.356265,0.2948403 0.08237,0.023408 0.160998,0.043062 0.235872,0.058968 0.111858,0.05289 0.219967,0.10203 0.324325,0.1474204 0.613087,0.043062 1.222423,0.082374 1.82801,0.117936 0.141342,0.00375 0.278934,0.00375 0.412776,0 0.10203,-0.025733 0.20031,-0.055218 0.29484,-0.088452 0.170826,-0.015907 0.337903,-0.035561 0.501229,-0.058968 0.04306,-0.015907 0.08237,-0.035561 0.117936,-0.058968 0.111858,-0.00608 0.219966,-0.015907 0.324324,-0.029483 0.04306,-0.00608 0.08237,-0.015907 0.117936,-0.029483 0.436183,0.013579 0.868615,0.023408 1.297298,0.029483 0.239622,0.00375 0.475494,0.00375 0.707616,0 0.07255,0.023408 0.141342,0.043062 0.206388,0.058968 0.07255,0.00375 0.141343,0.00375 0.206389,0 0.06272,0.013579 0.121686,0.023407 0.176904,0.029486 0.0922,0.00375 0.180654,0.00375 0.265356,0 0.07255,0.023408 0.141342,0.043062 0.206389,0.058968 0.07255,0.00375 0.141342,0.00375 0.206388,0 0.06272,0.023408 0.121686,0.043062 0.176904,0.058968 0.08237,0.013579 0.160998,0.023408 0.235872,0.029483 0.03323,0.033232 0.06272,0.062718 0.08845,0.088452 0.03323,0.00375 0.06272,0.00375 0.08845,0 0.03323,0.033232 0.06272,0.062718 0.08845,0.088452 0.03323,0.013579 0.06272,0.023408 0.08845,0.029483 0.04306,0.043062 0.08237,0.082374 0.117937,0.1179364 0.06272,0.013579 0.121686,0.023408 0.176904,0.029483 0.02341,0.023408 0.04306,0.043062 0.05897,0.058968 0.01358,0.00375 0.02341,0.00375 0.02948,0 0.0038,0.062718 0.0038,0.121686 0,0.1769043 -0.02573,0.141342 -0.05522,0.278934 -0.08845,0.4127764 0.0038,0.033233 0.0038,0.062718 0,0.088452 -0.01591,0.023408 -0.03556,0.043062 -0.05897,0.058968 0.0038,0.023408 0.0038,0.043062 0,0.058968 -0.0061,0.013579 -0.01591,0.023407 -0.02948,0.029482 0.0038,0.062718 0.0038,0.1216864 0,0.1769044 -0.02573,0.10203 -0.05522,0.20031 -0.08845,0.29484 0.0038,0.033232 0.0038,0.062718 0,0.088452 -0.04539,0.092202 -0.09453,0.180654 -0.147421,0.265356 -0.04539,0.2592783 -0.09453,0.5148067 -0.14742,0.7665847 -0.05522,0.1020304 -0.114186,0.2003104 -0.176904,0.2948404 -0.02573,0.1609984 -0.05522,0.3182464 -0.08845,0.4717447 -0.0061,0.013579 -0.01591,0.023407 -0.02948,0.029482 0.0038,0.082374 0.0038,0.160998 0,0.235872 -0.03556,0.1708264 -0.07487,0.3379024 -0.117936,0.5012288 -0.03556,0.1216863 -0.07487,0.2396223 -0.117936,0.3538083 -0.0061,0.07255 -0.01591,0.141342 -0.02948,0.206388 -0.01591,0.02341 -0.03556,0.04306 -0.05897,0.05897 -0.01591,0.05289 -0.03556,0.10203 -0.05897,0.147421 -0.06505,0.15117 -0.133842,0.29859 -0.206388,0.44226 -0.01591,0.259278 -0.03556,0.514806 -0.05897,0.766585 -0.02573,0.190482 -0.05522,0.377214 -0.08845,0.560196 0.0038,0.06272 0.0038,0.121687 0,0.176905 -0.03556,0.06272 -0.07487,0.121686 -0.117936,0.176904 -0.04539,0.121686 -0.09453,0.239622 -0.14742,0.353808 -0.104358,0.07255 -0.212466,0.141342 -0.324325,0.206388 -0.01591,0.02341 -0.03556,0.04306 -0.05897,0.05897 -0.04539,0.02341 -0.09453,0.04306 -0.14742,0.05897 -0.02573,0.03323 -0.05522,0.06272 -0.08845,0.08845 -0.163326,0.04306 -0.330402,0.08238 -0.501228,0.117937 -0.359887,0.0038 -0.723523,0.0038 -1.09091,0 -0.379542,-0.0061 -0.762834,-0.01591 -1.149877,-0.02948 -0.182982,0.0038 -0.369714,0.0038 -0.560196,0 -0.418854,0.0038 -0.841459,0.0038 -1.267814,0 -0.29109,0.0038 -0.58593,0.0038 -0.88452,0 -0.163326,0.02341 -0.330403,0.04306 -0.501229,0.05897 -0.03556,0.02341 -0.07487,0.04306 -0.117936,0.05897 -0.04539,0.0037 -0.09453,0.0037 -0.14742,0 -0.153498,0.02341 -0.310746,0.04306 -0.471744,0.05897 -0.124015,0.0038 -0.251779,0.0038 -0.383293,0 -0.133842,0.03323 -0.271434,0.06272 -0.412776,0.08845 -0.05522,0.0038 -0.114187,0.0038 -0.176905,0 -0.02573,0.01358 -0.05522,0.02341 -0.08845,0.02948 -0.281262,0.01358 -0.566274,0.02341 -0.855036,0.02948 -0.04539,0.01358 -0.09453,0.02341 -0.147421,0.02949 -0.14367,0.0038 -0.29109,0.0038 -0.44226,0 -0.133842,0.02341 -0.271434,0.04306 -0.412776,0.05897 -0.1633264,0.0038 -0.3304028,0.0038 -0.5012288,0 -0.015907,0.02341 -0.035561,0.04306 -0.058968,0.05897 -0.09453,0.04306 -0.1928103,0.08237 -0.2948403,0.117936 z" />
</svg>
