<?xml version="1.0" encoding="UTF-8" standalone="no"?>
<!-- Uploaded to: SVG Repo, www.svgrepo.com, Generator: SVG Repo Mixer Tools -->

<svg
   width="800px"
   height="800px"
   viewBox="0 0 24 24"
   fill="#21FEFE"
   version="1.1"
   id="svg19"
   sodipodi:docname="star_fill.svg"
   inkscape:version="1.2.2 (732a01da63, 2022-12-09)"
   xmlns:inkscape="http://www.inkscape.org/namespaces/inkscape"
   xmlns:sodipodi="http://sodipodi.sourceforge.net/DTD/sodipodi-0.dtd"
   xmlns="http://www.w3.org/2000/svg"
   xmlns:svg="http://www.w3.org/2000/svg">
  <defs
     id="defs23">
    <inkscape:path-effect
       effect="bspline"
       id="path-effect1305"
       is_visible="true"
       lpeversion="1"
       weight="33.333333"
       steps="2"
       helper_size="0"
       apply_no_weight="true"
       apply_with_weight="true"
       only_selected="false" />
  </defs>
  <sodipodi:namedview
     id="namedview21"
     pagecolor="#ffffff"
     bordercolor="#000000"
     borderopacity="0.25"
     inkscape:showpageshadow="2"
     inkscape:pageopacity="0.0"
     inkscape:pagecheckerboard="0"
     inkscape:deskcolor="#d1d1d1"
     showgrid="false"
     inkscape:zoom="0.98125"
     inkscape:cx="225.73248"
     inkscape:cy="323.05732"
     inkscape:window-width="1920"
     inkscape:window-height="1001"
     inkscape:window-x="-9"
     inkscape:window-y="-9"
     inkscape:window-maximized="1"
     inkscape:current-layer="svg19" />
  <path
     fill-rule="evenodd"
     clip-rule="evenodd"
     d="m 11.8335,2.83118 c 0.1107,-0.01059 0.2223,-0.01059 0.333,0 0.6871,0.06569 1.0942,0.59386 1.3652,1.05621 0.2792,0.47615 0.5645,1.15268 0.9053,1.96078 l 0.0219,0.05191 c 0.2152,0.51015 0.3574,0.84533 0.4917,1.09571 0.1272,0.23705 0.221,0.34589 0.3126,0.41883 0.0288,0.02295 0.0586,0.04462 0.0894,0.06493 0.0976,0.06457 0.2302,0.12017 0.4949,0.16788 0.2796,0.0504 0.6424,0.08205 1.194,0.12904 l 0.0562,0.00478 c 0.8738,0.0744 1.6054,0.13669 2.1445,0.25505 0.5235,0.11494 1.1516,0.33886 1.4264,0.972 0.0443,0.10208 0.0788,0.20815 0.1029,0.31677 0.1499,0.67373 -0.2267,1.22413 -0.5826,1.62473 -0.3666,0.4127 -0.9219,0.8931 -1.5851,1.467 l -0.0426,0.0368 c -0.4187,0.3623 -0.6935,0.6011 -0.8901,0.8062 -0.1862,0.1942 -0.2607,0.3171 -0.3018,0.4267 -0.0129,0.0345 -0.0243,0.0696 -0.0341,0.1051 -0.0312,0.1128 -0.0431,0.256 -0.0067,0.5226 0.0385,0.2815 0.1205,0.6363 0.2462,1.1754 l 0.0128,0.0549 c 0.1993,0.8541 0.3662,1.5691 0.4202,2.1184 0.0524,0.5334 0.0336,1.2 -0.4837,1.657 -0.0834,0.0736 -0.1736,0.1392 -0.2694,0.1957 -0.5945,0.3507 -1.2343,0.1627 -1.7253,-0.052 -0.5058,-0.2211 -1.1342,-0.6008 -1.8849,-1.0542 l -0.0482,-0.0291 c -0.474,-0.2863 -0.786,-0.4739 -1.0419,-0.5975 -0.2422,-0.117 -0.3821,-0.1499 -0.4991,-0.1551 -0.0368,-0.0016 -0.0736,-0.0016 -0.1104,0 -0.117,0.0052 -0.2569,0.0381 -0.4991,0.1551 -0.2559,0.1236 -0.5679,0.3112 -1.0419,0.5975 l -0.0482,0.0291 C 9.60492,18.8628 8.97645,19.2425 8.47072,19.4636 7.97966,19.6783 7.33988,19.8663 6.74543,19.5156 6.64959,19.4591 6.55936,19.3935 6.47597,19.3199 5.95873,18.8629 5.93986,18.1963 5.99232,17.6629 6.04634,17.1136 6.21318,16.3986 6.41246,15.5445 l 0.0128,-0.0549 C 6.55105,14.9505 6.63303,14.5957 6.67151,14.3142 6.70795,14.0476 6.69601,13.9044 6.66479,13.7916 6.65496,13.7561 6.64357,13.721 6.63065,13.6865 6.58959,13.5769 6.51507,13.454 6.32892,13.2598 6.13231,13.0547 5.85747,12.8159 5.43878,12.4536 L 5.39619,12.4167 C 4.73294,11.8429 4.17769,11.3625 3.81111,10.9498 3.45515,10.5492 3.07862,9.9988 3.22847,9.32507 3.25263,9.21645 3.28709,9.11038 3.33139,9.0083 3.60617,8.37516 4.23429,8.15124 4.75778,8.0363 5.29689,7.91794 6.02847,7.85565 6.90233,7.78125 L 6.95846,7.77647 C 7.51013,7.72948 7.87285,7.69783 8.15249,7.64743 8.41724,7.59972 8.54975,7.54412 8.64743,7.47955 8.67816,7.45924 8.70797,7.43757 8.73679,7.41462 8.82838,7.34168 8.92221,7.23284 9.0494,6.99579 9.18374,6.74541 9.32594,6.41023 9.5411,5.90008 L 9.56298,5.84819 C 9.90378,5.04008 10.1891,4.36355 10.4683,3.88739 10.7393,3.42504 11.1464,2.89687 11.8335,2.83118 Z M 12,4.32434 C 11.9684,4.34992 11.8894,4.42924 11.7623,4.64606 11.5393,5.02627 11.2916,5.60942 10.9232,6.483 L 10.9103,6.51351 C 10.7115,6.98492 10.5426,7.38544 10.3712,7.70499 10.1889,8.04473 9.97841,8.34338 9.67123,8.58801 9.60783,8.63849 9.54223,8.68615 9.47463,8.73085 9.14704,8.9474 8.79798,9.05527 8.41853,9.12365 8.06165,9.18797 7.62854,9.22485 7.11877,9.26825 L 7.08576,9.27106 C 6.14108,9.35152 5.50993,9.40689 5.07945,9.5014 4.83396,9.5553 4.7341,9.60594 4.70001,9.6281 4.71457,9.66606 4.76559,9.76572 4.93251,9.95362 5.22523,10.2831 5.70329,10.6989 6.42027,11.3193 l 0.02507,0.0216 c 0.38688,0.3348 0.7156,0.6192 0.96651,0.881 0.26679,0.2783 0.48578,0.5708 0.62351,0.9385 0.02843,0.0759 0.05349,0.153 0.0751,0.2312 0.10473,0.3784 0.09945,0.7437 0.04723,1.1257 -0.04911,0.3593 -0.14788,0.7826 -0.26413,1.2809 l -0.00753,0.0322 c -0.21539,0.9233 -0.35777,1.5407 -0.40091,1.9793 -0.0246,0.2502 -0.0073,0.3608 0.00324,0.4 0.0406,-0.0021 0.15115,-0.0198 0.38144,-0.1205 0.40382,-0.1766 0.94697,-0.5027 1.75853,-0.9929 l 0.02836,-0.0171 c 0.43791,-0.2646 0.81001,-0.4893 1.13651,-0.647 0.3472,-0.1678 0.693,-0.2857 1.0853,-0.303 0.081,-0.0036 0.162,-0.0036 0.243,0 0.3923,0.0173 0.7381,0.1352 1.0853,0.303 0.3265,0.1577 0.6986,0.3825 1.1365,0.647 l 0.0284,0.0171 c 0.8115,0.4902 1.3547,0.8163 1.7585,0.9929 0.2303,0.1007 0.3408,0.1184 0.3814,0.1205 0.0106,-0.0392 0.0279,-0.1498 0.0033,-0.4 -0.0432,-0.4386 -0.1855,-1.056 -0.4009,-1.9793 l -0.0076,-0.0323 c -0.1162,-0.4982 -0.215,-0.9215 -0.2641,-1.2808 -0.0522,-0.382 -0.0575,-0.7473 0.0472,-1.1257 0.0217,-0.0782 0.0467,-0.1553 0.0751,-0.2312 0.1378,-0.3677 0.3568,-0.6602 0.6235,-0.9385 0.251,-0.2618 0.5797,-0.5462 0.9665,-0.8809 l 0.0251,-0.0217 c 0.717,-0.6204 1.1951,-1.0362 1.4878,-1.36568 C 19.2344,9.76572 19.2854,9.66606 19.3,9.6281 19.2659,9.60594 19.166,9.5553 18.9206,9.5014 18.4901,9.40689 17.8589,9.35152 16.9142,9.27106 L 16.8812,9.26825 C 16.3715,9.22485 15.9383,9.18797 15.5815,9.12365 15.202,9.05527 14.853,8.9474 14.5254,8.73085 14.4578,8.68615 14.3922,8.63849 14.3288,8.58801 14.0216,8.34338 13.8111,8.04473 13.6288,7.70499 13.4574,7.38545 13.2885,6.98492 13.0897,6.51352 L 13.0768,6.483 C 12.7083,5.60942 12.4607,5.02627 12.2377,4.64606 12.1106,4.42924 12.0316,4.34992 12,4.32434 Z"
     fill="#21fefe"
     id="path17"
     style="display:inline" />
  <path
     style="fill:#21fefe;fill-opacity:1;fill-rule:evenodd;stroke:#000000;stroke-width:0;stroke-dasharray:none;stroke-opacity:0.146104;paint-order:stroke fill markers"
     d="M 4.4790387,10.282982 C 4.4332364,10.140486 4.3415168,9.8551364 4.2955991,9.6818586 4.2496815,9.5085807 4.2496815,9.4474338 4.2598726,9.4065196 c 0.010191,-0.040914 0.030573,-0.061296 0.066222,-0.1071277 0.035649,-0.045832 0.086604,-0.1171692 0.1529958,-0.157978 0.066392,-0.040809 0.14792,-0.051 0.2242961,-0.071397 0.076376,-0.020397 0.1477142,-0.050971 0.2547741,-0.076435 0.1070599,-0.025465 0.2497351,-0.045847 0.4077116,-0.061123 0.1579765,-0.015277 0.3312248,-0.025468 0.4687237,-0.056063 0.1374989,-0.030595 0.23941,-0.08155 0.3210003,-0.1121138 0.08159,-0.030564 0.1427367,-0.040755 0.2650085,-0.071335 0.1222718,-0.030581 0.3057115,-0.081536 0.4127671,-0.106986 0.1070557,-0.02545 0.1376297,-0.02545 0.1885075,-0.040768 0.050878,-0.015318 0.1222151,-0.045891 0.234384,-0.066251 0.1121689,-0.02036 0.2650352,-0.030551 0.4331702,-0.050944 0.1681351,-0.020393 0.3515747,-0.050966 0.4992915,-0.091741 0.1477168,-0.040775 0.2598189,-0.09173 0.3362898,-0.1222991 0.076471,-0.030569 0.117236,-0.04076 0.1578713,-0.076368 0.040635,-0.035608 0.081399,-0.096754 0.168078,-0.1732434 0.086678,-0.076489 0.2191626,-0.168209 0.2853733,-0.2189922 0.066211,-0.050783 0.066211,-0.060975 0.1273921,-0.1070082 0.061181,-0.046033 0.183474,-0.1275616 0.2598424,-0.1988158 0.076368,-0.071254 0.106942,-0.1324014 0.1375798,-0.1732486 0.030638,-0.040847 0.061211,-0.061229 0.1121049,-0.1324972 0.050894,-0.071268 0.1222314,-0.1935608 0.178295,-0.2802134 0.056063,-0.086653 0.096828,-0.137608 0.1273864,-0.1935869 0.03056,-0.055979 0.05094,-0.1171241 0.07135,-0.1579785 0.02041,-0.040854 0.04079,-0.061235 0.05099,-0.081469 0.01019,-0.020234 0.01019,-0.040616 0.04074,-0.1018693 0.03055,-0.061254 0.09169,-0.1631625 0.137564,-0.3363258 0.04587,-0.1731632 0.07644,-0.4177499 0.127388,-0.6012723 0.05095,-0.1835224 0.122282,-0.3058144 0.183454,-0.3924838 0.06117,-0.086669 0.112131,-0.1376279 0.14777,-0.1834269 0.03564,-0.045799 0.05602,-0.086563 0.12739,-0.1681523 0.07137,-0.08159 0.193662,-0.2038829 0.300678,-0.3058021 0.107016,-0.1019192 0.198735,-0.1834475 0.24965,-0.2343347 0.05092,-0.050887 0.06111,-0.071269 0.07148,-0.081521 0.01037,-0.010251 0.02056,-0.010251 0.02551,-0.015196 0.0049,-0.00494 0.0049,-0.015137 0.07131,-0.030593 0.06637,-0.015456 0.198851,-0.035838 0.372139,0.040747 0.173288,0.076585 0.387301,0.2498332 0.591105,0.4383892 0.203804,0.188556 0.397434,0.3923778 0.5146,0.5248801 0.117167,0.1325024 0.157933,0.1936518 0.203813,0.2547882 0.04588,0.061136 0.09683,0.1222811 0.137541,0.188541 0.04071,0.06626 0.07128,0.1376001 0.107002,0.1987286 0.03572,0.061129 0.07649,0.1120863 0.101894,0.1528656 0.02541,0.040779 0.0356,0.071353 0.08151,0.1477797 0.04591,0.076426 0.127443,0.1987188 0.188546,0.310828 0.0611,0.1121092 0.101869,0.2140217 0.137571,0.2904496 0.0357,0.076428 0.06628,0.1273858 0.08146,0.1681227 0.01518,0.040737 0.01518,0.071311 0.03057,0.1121008 0.01539,0.04079 0.04597,0.091748 0.06627,0.1528859 0.0203,0.061138 0.03049,0.1324747 0.04584,0.1885369 0.01535,0.056062 0.03574,0.096826 0.08668,0.2089299 0.05095,0.1121043 0.132475,0.2955431 0.229347,0.4534855 0.09687,0.1579423 0.208973,0.2904263 0.275228,0.3668472 0.06626,0.076421 0.08664,0.096801 0.183484,0.1323742 0.09685,0.035573 0.270094,0.086529 0.371975,0.1119536 0.10188,0.025425 0.13246,0.025425 0.15284,0.030671 0.02038,0.00525 0.03057,0.015436 0.09684,0.035713 0.06627,0.020276 0.188561,0.05085 0.402561,0.081395 0.214,0.030546 0.519732,0.061119 0.749049,0.1121423 0.229317,0.051024 0.382182,0.1223609 0.550325,0.1732605 0.168142,0.0509 0.351583,0.081473 0.555411,0.1273531 0.203829,0.04588 0.428033,0.1070266 0.611455,0.1426582 0.183422,0.035632 0.326097,0.045823 0.46879,0.091773 0.142693,0.04595 0.285367,0.1274786 0.377079,0.1835553 0.09171,0.056077 0.132474,0.086648 0.152688,0.239538 0.02021,0.15289 0.02021,0.4280494 0.02021,0.5962044 0,0.168154 0,0.229297 -0.01528,0.275005 -0.01528,0.04571 -0.04586,0.07629 -0.07647,0.127315 -0.0306,0.05103 -0.06118,0.122364 -0.147731,0.203796 -0.08656,0.08143 -0.22923,0.17315 -0.407571,0.285251 -0.17834,0.112101 -0.392353,0.244585 -0.509532,0.315917 -0.117178,0.07133 -0.137558,0.08152 -0.147813,0.09189 -0.01025,0.01037 -0.01025,0.02056 -0.01535,0.0306 -0.0051,0.01004 -0.01528,0.02023 -0.0611,0.05077 -0.04582,0.03055 -0.127349,0.0815 -0.173259,0.173387 -0.04591,0.09188 -0.0561,0.224365 -0.188529,0.366877 -0.132429,0.142511 -0.387206,0.295377 -0.540036,0.381996 -0.152829,0.08662 -0.203788,0.107004 -0.229345,0.127567 -0.02556,0.02056 -0.02556,0.04094 -0.04086,0.07139 -0.01531,0.03045 -0.04588,0.07122 -0.08156,0.137503 -0.03568,0.06629 -0.07645,0.158008 -0.0968,0.219232 -0.02035,0.06123 -0.02035,0.09181 -0.02548,0.117192 -0.0051,0.02539 -0.01532,0.04577 -0.02038,0.107008 -0.0051,0.06124 -0.0051,0.163146 -0.01016,0.219049 -0.0051,0.0559 -0.01528,0.06609 -0.03569,0.132435 -0.02041,0.06635 -0.05098,0.188642 -0.06624,0.260022 -0.01526,0.07138 -0.01526,0.09176 -0.02038,0.132502 -0.0051,0.04074 -0.01531,0.101884 -0.04079,0.193571 -0.02549,0.09169 -0.06625,0.213983 -0.0866,0.346527 -0.02035,0.132544 -0.02035,0.275219 -0.02035,0.479041 0,0.203821 0,0.468789 0,0.723566 0,0.254777 0,0.499363 0.01541,0.642057 0.01541,0.142694 0.04599,0.183459 0.06115,0.234397 0.01516,0.05094 0.01516,0.112081 0.02541,0.173259 0.01025,0.06118 0.03063,0.12232 0.04077,0.168149 0.01013,0.04583 0.01013,0.07641 0.01538,0.09679 0.0052,0.02038 0.01544,0.03057 0.02552,0.05607 0.01008,0.0255 0.02028,0.06627 0.03057,0.08648 0.0103,0.02021 0.02049,0.02021 0.02543,0.03564 0.0049,0.01544 0.0049,0.04601 0.0049,0.08678 0,0.04077 0,0.09172 0.01031,0.132501 0.01031,0.04079 0.03069,0.07136 0.02547,0.213994 -0.0052,0.142633 -0.0358,0.397411 -0.0562,0.534921 -0.0204,0.137511 -0.03058,0.157887 -0.06111,0.188387 -0.03052,0.0305 -0.08149,0.07127 -0.249517,0.101847 -0.168032,0.03058 -0.453382,0.05096 -0.606236,0.05112 -0.152854,1.62e-4 -0.173234,-0.02022 -0.208909,-0.03056 -0.03567,-0.01034 -0.08663,-0.01034 -0.213988,-0.07138 -0.127362,-0.06104 -0.331184,-0.183334 -0.478974,-0.285211 -0.147789,-0.101876 -0.239508,-0.183404 -0.300687,-0.244524 -0.06118,-0.06112 -0.09175,-0.101885 -0.147756,-0.147803 -0.056,-0.04592 -0.137528,-0.09687 -0.213968,-0.147816 -0.07644,-0.05095 -0.147773,-0.101898 -0.2242,-0.137645 -0.07643,-0.03575 -0.157954,-0.05613 -0.300626,-0.107058 -0.142671,-0.05093 -0.346493,-0.132457 -0.47899,-0.17836 -0.132497,-0.0459 -0.193638,-0.05609 -0.280253,-0.08661 -0.08662,-0.03052 -0.198715,-0.08147 -0.321009,-0.127361 -0.122294,-0.04589 -0.25478,-0.08665 -0.402553,-0.127427 -0.147772,-0.04078 -0.31083,-0.08154 -0.443413,-0.08161 -0.132582,-7.5e-5 -0.234494,0.04069 -0.305806,0.06617 -0.07131,0.02548 -0.112072,0.03567 -0.1426,0.04079 -0.03053,0.0051 -0.05091,0.0051 -0.06638,0.01537 -0.01547,0.01025 -0.02566,0.03063 -0.09692,0.0815 -0.07127,0.05087 -0.20375,0.132402 -0.285337,0.193596 -0.08159,0.06119 -0.112166,0.101965 -0.157972,0.142681 -0.04581,0.04072 -0.106953,0.08148 -0.157941,0.122266 -0.05099,0.04078 -0.09176,0.08155 -0.142653,0.117194 -0.0509,0.03564 -0.112041,0.06621 -0.157977,0.101932 -0.04594,0.03572 -0.07651,0.07649 -0.117184,0.107009 -0.04067,0.03052 -0.09162,0.0509 -0.152796,0.08148 -0.06118,0.03058 -0.1325149,0.07134 -0.1784221,0.101943 -0.045907,0.0306 -0.066287,0.05098 -0.1426268,0.08153 -0.076339,0.03055 -0.2088248,0.07131 -0.3922798,0.137552 -0.1834551,0.06624 -0.4178499,0.157959 -0.5655501,0.20385 -0.1477001,0.04589 -0.208846,0.04589 -0.3056738,0.05097 -0.096828,0.0051 -0.2293116,0.01528 -0.3261144,0.02038 -0.096803,0.0051 -0.1579496,0.0051 -0.3108524,0.03056 -0.1529029,0.02545 -0.397488,0.07641 -0.5503958,0.02566 -0.1529078,-0.05075 -0.2140543,-0.203617 -0.2599329,-0.331007 -0.045879,-0.127391 -0.076452,-0.229302 -0.091792,-0.305762 -0.01534,-0.07646 -0.01534,-0.127419 -0.01534,-0.224235 0,-0.09681 0,-0.23949 0.010168,-0.361818 0.010168,-0.122327 0.03055,-0.224238 0.040765,-0.402548 0.010214,-0.178309 0.010214,-0.433086 0.025472,-0.611484 0.015258,-0.178397 0.045831,-0.280308 0.061147,-0.412739 0.015316,-0.13243 0.015316,-0.295487 0.025489,-0.448377 0.010173,-0.152891 0.030556,-0.295566 0.040765,-0.382164 0.010209,-0.0866 0.010209,-0.117179 0.030564,-0.168235 0.020355,-0.05106 0.061118,-0.122392 0.081528,-0.188535 0.02041,-0.06614 0.02041,-0.127285 0.030583,-0.229219 0.010173,-0.101935 0.030555,-0.24461 0.050942,-0.417851 0.020387,-0.173241 0.040769,-0.377063 0.030692,-0.514599 -0.010077,-0.137536 -0.05084,-0.208873 -0.096624,-0.259899 -0.045784,-0.05103 -0.096743,-0.0816 -0.1324962,-0.117194 -0.035754,-0.03559 -0.056138,-0.07636 -0.1223009,-0.137565 -0.066163,-0.0612 -0.1782639,-0.142731 -0.2699747,-0.193759 -0.091711,-0.05103 -0.163047,-0.07141 -0.2445895,-0.117194 C 6.4207267,12.677966 6.3290083,12.60663 6.2678744,12.565796 6.2067405,12.524963 6.1761695,12.514774 6.115001,12.468995 6.0538325,12.423216 5.9621133,12.341688 5.9060204,12.28567 5.8499275,12.229653 5.8295422,12.199075 5.7480537,12.122604 5.6665652,12.046133 5.5238892,11.923841 5.4066566,11.801579 5.289424,11.679317 5.1977042,11.557024 5.1365826,11.480574 c -0.061122,-0.07645 -0.091698,-0.107027 -0.1071342,-0.132503 -0.015436,-0.02548 -0.015436,-0.04586 -0.025511,-0.07131 -0.010075,-0.02546 -0.03046,-0.05604 -0.040766,-0.08153 -0.010306,-0.0255 -0.010306,-0.04588 -0.030537,-0.07645 -0.020231,-0.03058 -0.060999,-0.07134 -0.086565,-0.10698 -0.025567,-0.03564 -0.03576,-0.06622 -0.061166,-0.106996 -0.025406,-0.04078 -0.066169,-0.09173 -0.086683,-0.132511 -0.020514,-0.04078 -0.020514,-0.07136 -0.025459,-0.08679 -0.00495,-0.01544 -0.015137,-0.01544 -0.020383,-0.02038 -0.00525,-0.005 -0.00525,-0.01513 -0.025527,-0.05587 -0.020281,-0.04074 -0.061045,-0.112073 -0.081528,-0.147919 -0.020484,-0.03585 -0.020483,-0.03584 -0.066286,-0.178337 z"
     id="path1303"
     inkscape:path-effect="#path-effect1305"
     inkscape:original-d="M 4.5248409,10.425478 C 4.433421,10.140427 4.3417014,9.8550771 4.2496815,9.5694267 c 3e-4,-0.060846 3e-4,-0.1219929 0,-0.1834395 0.020682,-0.020082 0.041064,-0.040464 0.061147,-0.061146 0.051255,-0.071038 0.1022109,-0.1423752 0.1528662,-0.2140128 0.081829,-0.00989 0.1633572,-0.020082 0.2445861,-0.030573 0.071637,-0.030273 0.1429749,-0.060847 0.2140125,-0.09172 0.1429752,-0.020082 0.2856504,-0.040464 0.4280256,-0.061146 0.1735485,-0.00989 0.3467967,-0.020082 0.5197452,-0.030573 C 5.972275,8.8461614 6.0741859,8.7952055 6.1757965,8.7439502 6.2372435,8.7340602 6.2983897,8.7238682 6.359236,8.7133772 6.5429755,8.6627222 6.726415,8.6117663 6.9095545,8.560511 c 0.030873,3e-4 0.061447,3e-4 0.09172,0 C 7.0729125,8.530238 7.1442494,8.499664 7.215287,8.468791 7.3684535,8.458901 7.5213197,8.448709 7.6738859,8.438218 7.8576254,8.407945 8.0410649,8.377371 8.2242044,8.346498 8.3366063,8.295843 8.4487082,8.2448871 8.5605101,8.1936318 8.6015741,8.1837418 8.6423391,8.1735498 8.682803,8.1630588 8.723867,8.1022118 8.764632,8.0410659 8.8050959,7.9796193 8.9378801,7.8881993 9.0703643,7.7964798 9.2025482,7.7044602 c 3e-4,-0.00989 3e-4,-0.020082 0,-0.030573 0.1225932,-0.081229 0.2448861,-0.1627575 0.366879,-0.2445861 0.030873,-0.060846 0.061447,-0.1219929 0.09172,-0.1834395 0.030873,-0.020082 0.061446,-0.040464 0.09172,-0.061146 0.071638,-0.1219932 0.1429752,-0.2442861 0.2140128,-0.366879 0.041064,-0.050656 0.081829,-0.1016109 0.122293,-0.1528662 0.02068,-0.060847 0.04106,-0.1219932 0.06115,-0.1834395 0.02068,-0.020082 0.04106,-0.040465 0.06115,-0.061147 3e-4,-0.020082 3e-4,-0.040464 0,-0.061147 0.06145,-0.1016109 0.122593,-0.2035215 0.18344,-0.3057324 0.03087,-0.2442861 0.06145,-0.4888719 0.09172,-0.733758 0.07164,-0.1219929 0.142975,-0.2442861 0.214013,-0.366879 0.05125,-0.050655 0.102211,-0.1016109 0.152866,-0.1528662 0.02068,-0.040464 0.04106,-0.081229 0.06115,-0.1222929 0.122593,-0.1219932 0.244886,-0.2442861 0.366879,-0.366879 0.09202,-0.081229 0.183739,-0.1627575 0.275159,-0.2445861 0.01049,-0.020082 0.02068,-0.040464 0.03057,-0.061147 0.01049,3e-4 0.02068,3e-4 0.03057,0 3e-4,-0.00989 3e-4,-0.020082 0,-0.030573 0.132783,-0.020082 0.265268,-0.040464 0.397452,-0.061147 0.214312,0.1735485 0.428325,0.3467967 0.642038,0.5197452 0.19393,0.2041218 0.387561,0.4079433 0.580892,0.6114651 0.04106,0.061446 0.08183,0.1225929 0.122293,0.1834395 0.05126,0.061446 0.102211,0.1225929 0.152866,0.1834395 0.03087,0.071637 0.06145,0.1429749 0.09172,0.2140125 0.04106,0.051256 0.08183,0.1022109 0.122294,0.1528662 0.01049,0.030873 0.02068,0.061447 0.03057,0.09172 0.08183,0.1225929 0.163357,0.2448861 0.244586,0.366879 0.04106,0.1022109 0.08183,0.2041215 0.122293,0.3057324 0.03087,0.051256 0.06145,0.1022109 0.09172,0.1528662 3e-4,0.030873 3e-4,0.061447 0,0.09172 0.03087,0.051255 0.06145,0.1022109 0.09172,0.1528662 0.01049,0.071638 0.02068,0.1429752 0.03057,0.2140128 0.02068,0.041064 0.04106,0.081829 0.06115,0.1222929 0.08183,0.1837395 0.163357,0.367179 0.244586,0.5503185 0.112402,0.1327842 0.224504,0.2652681 0.336306,0.3974523 0.02068,0.020682 0.04106,0.041064 0.06115,0.061146 0.173549,0.051256 0.346797,0.1022109 0.519745,0.1528665 0.03087,3e-4 0.06145,3e-4 0.09172,0 0.01049,0.010491 0.02068,0.020682 0.03057,0.030573 0.122592,0.030873 0.244885,0.061447 0.366878,0.09172 0.306033,0.030873 0.611765,0.061447 0.917198,0.09172 0.153166,0.071638 0.306032,0.1429752 0.458599,0.2140128 0.183739,0.030873 0.367179,0.061447 0.550318,0.09172 0.224504,0.061446 0.448708,0.1225929 0.672611,0.1834395 0.142976,0.010491 0.285651,0.020682 0.428026,0.030573 0.142975,0.081829 0.28565,0.1633575 0.428025,0.2445861 0.04107,0.030873 0.08183,0.061447 0.122294,0.09172 3e-4,0.2754591 3e-4,0.5506185 0,0.8254775 3e-4,0.06145 3e-4,0.122593 0,0.183439 -0.03027,0.03087 -0.06085,0.06145 -0.09172,0.09172 -0.03027,0.07164 -0.06085,0.142975 -0.09172,0.214013 -0.142375,0.09202 -0.28505,0.183739 -0.428025,0.275159 -0.213713,0.132784 -0.427726,0.265268 -0.642039,0.397452 -0.02008,0.01049 -0.04046,0.02068 -0.06115,0.03057 3e-4,0.01049 3e-4,0.02068 0,0.03057 -0.0099,0.01049 -0.02008,0.02068 -0.03057,0.03057 -0.08123,0.05125 -0.162758,0.102211 -0.244586,0.152866 -0.0099,0.132785 -0.02008,0.265268 -0.03057,0.397453 -0.254477,0.153166 -0.509254,0.306032 -0.764331,0.458598 -0.05065,0.02068 -0.101611,0.04106 -0.152866,0.06115 3e-4,0.02068 3e-4,0.04106 0,0.06115 -0.03027,0.04107 -0.06085,0.08183 -0.09172,0.122293 -0.04046,0.09202 -0.08123,0.18374 -0.122293,0.275159 3e-4,0.03087 3e-4,0.06145 0,0.09172 -0.0099,0.02068 -0.02008,0.04107 -0.03057,0.06115 3e-4,0.102211 3e-4,0.204121 0,0.305732 -0.0099,0.01049 -0.02008,0.02068 -0.03057,0.03057 -0.03027,0.122594 -0.06085,0.244886 -0.09172,0.366879 3e-4,0.02068 3e-4,0.04106 0,0.06115 -0.0099,0.06145 -0.02008,0.122593 -0.03057,0.183439 -0.04046,0.122593 -0.08123,0.244887 -0.122293,0.366879 3e-4,0.142976 3e-4,0.285651 0,0.428026 3e-4,0.265268 3e-4,0.530236 0,0.794904 3e-4,0.244886 3e-4,0.489472 0,0.733758 0.03087,0.04107 0.06145,0.08183 0.09172,0.122293 3e-4,0.06145 3e-4,0.122593 0,0.18344 0.02068,0.06145 0.04106,0.122593 0.06115,0.183439 3e-4,0.03087 3e-4,0.06145 0,0.09172 0.01049,0.01049 0.02068,0.02068 0.03057,0.03057 0.01049,0.04106 0.02068,0.08183 0.03057,0.122293 0.01049,3e-4 0.02068,3e-4 0.03057,0 3e-4,0.03087 3e-4,0.06145 0,0.09172 3e-4,0.05126 3e-4,0.102211 0,0.152866 0.02068,0.03087 0.04106,0.06145 0.06115,0.09172 -0.03027,0.255077 -0.06085,0.509854 -0.09172,0.764331 -0.0099,0.02068 -0.02008,0.04106 -0.03057,0.06115 -0.05065,0.04106 -0.101611,0.08183 -0.152866,0.122293 -0.28505,0.02068 -0.570401,0.04106 -0.856051,0.06115 -0.02008,-0.02008 -0.04046,-0.04046 -0.06115,-0.06115 -0.05066,3e-4 -0.101611,3e-4 -0.152867,0 -0.203521,-0.121993 -0.407343,-0.244286 -0.611465,-0.366879 -0.09142,-0.08123 -0.183139,-0.162758 -0.275159,-0.244586 -0.03027,-0.04047 -0.06085,-0.08123 -0.09172,-0.122293 -0.08123,-0.05066 -0.162757,-0.101611 -0.244586,-0.152866 -0.07104,-0.05066 -0.142375,-0.101611 -0.214012,-0.152867 -0.08123,-0.02008 -0.162758,-0.04046 -0.244586,-0.06115 -0.203522,-0.08123 -0.407344,-0.162758 -0.611465,-0.244586 -0.06085,-0.0099 -0.121993,-0.02008 -0.18344,-0.03057 -0.111802,-0.05066 -0.223904,-0.10161 -0.336306,-0.152866 -0.132184,-0.04046 -0.264668,-0.08123 -0.397452,-0.122293 -0.162757,-0.04046 -0.325814,-0.08123 -0.489172,-0.122293 -0.101611,0.04106 -0.203521,0.08183 -0.305732,0.122293 -0.04047,0.01049 -0.08123,0.02068 -0.122293,0.03057 -0.02008,3e-4 -0.04046,3e-4 -0.06115,0 -0.0099,0.02068 -0.02008,0.04106 -0.03057,0.06115 -0.132184,0.08183 -0.264668,0.163357 -0.397452,0.244586 -0.03027,0.04106 -0.06085,0.08183 -0.09172,0.122293 -0.06085,0.04106 -0.121993,0.08183 -0.18344,0.122293 -0.04046,0.04106 -0.08123,0.08183 -0.122292,0.122293 -0.06085,0.03087 -0.121993,0.06145 -0.18344,0.09172 -0.03027,0.04106 -0.06085,0.08183 -0.09172,0.122293 -0.05066,0.02068 -0.10161,0.04106 -0.152866,0.06115 -0.07104,0.04106 -0.1423753,0.08183 -0.2140129,0.122293 -0.020082,0.02068 -0.040464,0.04106 -0.061146,0.06115 -0.1321842,0.04106 -0.2646681,0.08183 -0.3974523,0.122293 -0.2340948,0.09202 -0.4684899,0.183739 -0.7031847,0.275159 -0.060847,3e-4 -0.1219929,3e-4 -0.1834395,0 -0.1321842,0.01049 -0.2646681,0.02068 -0.3974523,0.03057 -0.060846,3e-4 -0.1219929,3e-4 -0.1834395,0 -0.2442858,0.05126 -0.4888719,0.102211 -0.733758,0.152867 -0.060846,-0.152567 -0.1219929,-0.305433 -0.1834395,-0.458599 -0.030273,-0.101611 -0.060846,-0.203522 -0.09172,-0.305733 3e-4,-0.05065 3e-4,-0.10161 0,-0.152866 3e-4,-0.142375 3e-4,-0.28505 0,-0.428025 0.020682,-0.101611 0.041064,-0.203522 0.061147,-0.305733 3e-4,-0.254477 3e-4,-0.509254 0,-0.764331 0.030873,-0.101611 0.061446,-0.203522 0.09172,-0.305733 3e-4,-0.162757 3e-4,-0.325814 0,-0.489172 0.020682,-0.142375 0.041064,-0.28505 0.061147,-0.428025 3e-4,-0.03027 3e-4,-0.06085 0,-0.09172 0.041064,-0.07104 0.081829,-0.142375 0.1222929,-0.214013 3e-4,-0.06085 3e-4,-0.121993 0,-0.183439 0.020682,-0.142375 0.041064,-0.28505 0.061147,-0.428025 0.020682,-0.203522 0.041064,-0.407344 0.061146,-0.611465 -0.040464,-0.07104 -0.081229,-0.142376 -0.1222929,-0.214013 -0.050655,-0.03027 -0.1016109,-0.06085 -0.1528662,-0.09172 -0.020082,-0.04046 -0.040464,-0.08123 -0.061147,-0.122293 -0.1118019,-0.08123 -0.2239038,-0.162757 -0.3363057,-0.244586 -0.071038,-0.02008 -0.1423752,-0.04046 -0.2140128,-0.06115 -0.09142,-0.07104 -0.1831395,-0.142375 -0.2751591,-0.214012 -0.030273,-0.0099 -0.060847,-0.02008 -0.09172,-0.03057 -0.09142,-0.08123 -0.1831395,-0.162758 -0.2751591,-0.244586 -0.020082,-0.03027 -0.040464,-0.06085 -0.061147,-0.09172 C 5.6665419,12.04616 5.523867,11.923867 5.3808918,11.801274 5.2894719,11.679281 5.1977523,11.556988 5.1057324,11.434395 c -0.030273,-0.03027 -0.060846,-0.06085 -0.09172,-0.09172 3e-4,-0.02008 3e-4,-0.04046 0,-0.06115 -0.020082,-0.03027 -0.040464,-0.06085 -0.061147,-0.09172 3e-4,-0.02008 3e-4,-0.04046 0,-0.06115 -0.040464,-0.04046 -0.081229,-0.08123 -0.1222929,-0.122293 -0.00989,-0.03027 -0.020082,-0.06085 -0.030573,-0.09172 -0.040464,-0.05066 -0.081229,-0.101611 -0.1222929,-0.152867 3e-4,-0.03027 3e-4,-0.06085 0,-0.09172 -0.00989,3e-4 -0.020082,3e-4 -0.030573,0 3e-4,-0.0099 3e-4,-0.02008 0,-0.03057 -0.040464,-0.07104 -0.081229,-0.142375 -0.1222929,-0.214012 z" />
</svg>
